<?xml version="1.0" encoding="UTF-8"?><svg xmlns="http://www.w3.org/2000/svg" xmlns:xlink="http://www.w3.org/1999/xlink" fill-opacity="1" color-rendering="auto" color-interpolation="auto" text-rendering="auto" stroke="black" stroke-linecap="square" width="429" stroke-miterlimit="10" shape-rendering="auto" stroke-opacity="1" fill="black" stroke-dasharray="none" font-weight="normal" stroke-width="1" height="221" font-family="'Dialog'" font-style="normal" stroke-linejoin="miter" font-size="12px" stroke-dashoffset="0" image-rendering="auto">
  <!--Generated by ySVG 2.5-->
  <defs id="genericDefs"/>
  <g>
    <defs id="defs1">
      <clipPath clipPathUnits="userSpaceOnUse" id="clipPath1">
        <path d="M0 0 L429 0 L429 221 L0 221 L0 0 Z"/>
      </clipPath>
      <clipPath clipPathUnits="userSpaceOnUse" id="clipPath2">
        <path d="M-88 144 L341 144 L341 365 L-88 365 L-88 144 Z"/>
      </clipPath>
    </defs>
    <g fill="white" text-rendering="geometricPrecision" shape-rendering="geometricPrecision" transform="translate(88,-144)" stroke="white">
      <rect x="-88" width="429" height="221" y="144" clip-path="url(#clipPath2)" stroke="none"/>
    </g>
    <g fill="rgb(216,216,255)" text-rendering="geometricPrecision" shape-rendering="geometricPrecision" transform="matrix(1,0,0,1,88,-144)" stroke="rgb(216,216,255)">
      <rect x="227.742" width="80" height="100" y="249.5" clip-path="url(#clipPath2)" stroke="none"/>
    </g>
    <g text-rendering="geometricPrecision" stroke-miterlimit="1.45" shape-rendering="geometricPrecision" font-family="sans-serif" transform="matrix(1,0,0,1,88,-144)" stroke-linecap="butt">
      <text x="240.0594" xml:space="preserve" y="340.8633" clip-path="url(#clipPath2)" stroke="none">Machine 4</text>
      <rect x="227.742" y="249.5" clip-path="url(#clipPath2)" fill="none" width="80" stroke-dasharray="6,2" height="100"/>
    </g>
    <g fill="rgb(216,216,255)" text-rendering="geometricPrecision" shape-rendering="geometricPrecision" transform="matrix(1,0,0,1,88,-144)" stroke="rgb(216,216,255)">
      <rect x="127.742" width="80" height="100" y="249.5" clip-path="url(#clipPath2)" stroke="none"/>
    </g>
    <g text-rendering="geometricPrecision" stroke-miterlimit="1.45" shape-rendering="geometricPrecision" font-family="sans-serif" transform="matrix(1,0,0,1,88,-144)" stroke-linecap="butt">
      <text x="140.0594" xml:space="preserve" y="340.8633" clip-path="url(#clipPath2)" stroke="none">Machine 3</text>
      <rect x="127.742" y="249.5" clip-path="url(#clipPath2)" fill="none" width="80" stroke-dasharray="6,2" height="100"/>
    </g>
    <g fill="rgb(216,216,255)" text-rendering="geometricPrecision" shape-rendering="geometricPrecision" transform="matrix(1,0,0,1,88,-144)" stroke="rgb(216,216,255)">
      <rect x="27.742" width="80" height="100" y="249.5" clip-path="url(#clipPath2)" stroke="none"/>
    </g>
    <g text-rendering="geometricPrecision" stroke-miterlimit="1.45" shape-rendering="geometricPrecision" font-family="sans-serif" transform="matrix(1,0,0,1,88,-144)" stroke-linecap="butt">
      <text x="40.0594" xml:space="preserve" y="340.8633" clip-path="url(#clipPath2)" stroke="none">Machine 2</text>
      <rect x="27.742" y="249.5" clip-path="url(#clipPath2)" fill="none" width="80" stroke-dasharray="6,2" height="100"/>
    </g>
    <g fill="rgb(216,216,255)" text-rendering="geometricPrecision" shape-rendering="geometricPrecision" transform="matrix(1,0,0,1,88,-144)" stroke="rgb(216,216,255)">
      <rect x="-72.258" width="80" height="100" y="249.5" clip-path="url(#clipPath2)" stroke="none"/>
    </g>
    <g text-rendering="geometricPrecision" stroke-miterlimit="1.45" shape-rendering="geometricPrecision" font-family="sans-serif" transform="matrix(1,0,0,1,88,-144)" stroke-linecap="butt">
      <text x="-59.9406" xml:space="preserve" y="340.8633" clip-path="url(#clipPath2)" stroke="none">Machine 1</text>
      <rect x="-72.258" y="249.5" clip-path="url(#clipPath2)" fill="none" width="80" stroke-dasharray="6,2" height="100"/>
    </g>
    <g fill="rgb(255,153,51)" text-rendering="geometricPrecision" shape-rendering="geometricPrecision" transform="matrix(1,0,0,1,88,-144)" stroke="rgb(255,153,51)">
      <rect x="-65.84" y="281.5" clip-path="url(#clipPath2)" width="30" rx="4" ry="4" height="10" stroke="none"/>
    </g>
    <g text-rendering="geometricPrecision" stroke-miterlimit="1.45" shape-rendering="geometricPrecision" transform="matrix(1,0,0,1,88,-144)" stroke-linecap="butt">
      <rect x="-65.84" y="281.5" clip-path="url(#clipPath2)" fill="none" width="30" rx="4" ry="4" height="10"/>
    </g>
    <g fill="rgb(255,153,51)" text-rendering="geometricPrecision" shape-rendering="geometricPrecision" transform="matrix(1,0,0,1,88,-144)" stroke="rgb(255,153,51)">
      <rect x="-46.26" y="306.5" clip-path="url(#clipPath2)" width="30" rx="4" ry="4" height="10" stroke="none"/>
    </g>
    <g text-rendering="geometricPrecision" stroke-miterlimit="1.45" shape-rendering="geometricPrecision" transform="matrix(1,0,0,1,88,-144)" stroke-linecap="butt">
      <rect x="-46.26" y="306.5" clip-path="url(#clipPath2)" fill="none" width="30" rx="4" ry="4" height="10"/>
    </g>
    <g fill="rgb(255,153,51)" text-rendering="geometricPrecision" shape-rendering="geometricPrecision" transform="matrix(1,0,0,1,88,-144)" stroke="rgb(255,153,51)">
      <rect x="-28.676" y="281.5" clip-path="url(#clipPath2)" width="30" rx="4" ry="4" height="10" stroke="none"/>
    </g>
    <g text-rendering="geometricPrecision" stroke-miterlimit="1.45" shape-rendering="geometricPrecision" transform="matrix(1,0,0,1,88,-144)" stroke-linecap="butt">
      <rect x="-28.676" y="281.5" clip-path="url(#clipPath2)" fill="none" width="30" rx="4" ry="4" height="10"/>
    </g>
    <g fill="rgb(255,153,51)" text-rendering="geometricPrecision" shape-rendering="geometricPrecision" transform="matrix(1,0,0,1,88,-144)" stroke="rgb(255,153,51)">
      <rect x="-46.26" y="256.5" clip-path="url(#clipPath2)" width="30" rx="4" ry="4" height="10" stroke="none"/>
    </g>
    <g text-rendering="geometricPrecision" stroke-miterlimit="1.45" shape-rendering="geometricPrecision" transform="matrix(1,0,0,1,88,-144)" stroke-linecap="butt">
      <rect x="-46.26" y="256.5" clip-path="url(#clipPath2)" fill="none" width="30" rx="4" ry="4" height="10"/>
    </g>
    <g fill="rgb(255,153,51)" text-rendering="geometricPrecision" shape-rendering="geometricPrecision" transform="matrix(1,0,0,1,88,-144)" stroke="rgb(255,153,51)">
      <rect x="33.162" y="282" clip-path="url(#clipPath2)" width="30" rx="4" ry="4" height="10" stroke="none"/>
    </g>
    <g text-rendering="geometricPrecision" stroke-miterlimit="1.45" shape-rendering="geometricPrecision" transform="matrix(1,0,0,1,88,-144)" stroke-linecap="butt">
      <rect x="33.162" y="282" clip-path="url(#clipPath2)" fill="none" width="30" rx="4" ry="4" height="10"/>
    </g>
    <g fill="rgb(255,153,51)" text-rendering="geometricPrecision" shape-rendering="geometricPrecision" transform="matrix(1,0,0,1,88,-144)" stroke="rgb(255,153,51)">
      <rect x="52.742" y="307" clip-path="url(#clipPath2)" width="30" rx="4" ry="4" height="10" stroke="none"/>
    </g>
    <g text-rendering="geometricPrecision" stroke-miterlimit="1.45" shape-rendering="geometricPrecision" transform="matrix(1,0,0,1,88,-144)" stroke-linecap="butt">
      <rect x="52.742" y="307" clip-path="url(#clipPath2)" fill="none" width="30" rx="4" ry="4" height="10"/>
    </g>
    <g fill="rgb(255,153,51)" text-rendering="geometricPrecision" shape-rendering="geometricPrecision" transform="matrix(1,0,0,1,88,-144)" stroke="rgb(255,153,51)">
      <rect x="70.326" y="282" clip-path="url(#clipPath2)" width="30" rx="4" ry="4" height="10" stroke="none"/>
    </g>
    <g text-rendering="geometricPrecision" stroke-miterlimit="1.45" shape-rendering="geometricPrecision" transform="matrix(1,0,0,1,88,-144)" stroke-linecap="butt">
      <rect x="70.326" y="282" clip-path="url(#clipPath2)" fill="none" width="30" rx="4" ry="4" height="10"/>
    </g>
    <g fill="rgb(255,153,51)" text-rendering="geometricPrecision" shape-rendering="geometricPrecision" transform="matrix(1,0,0,1,88,-144)" stroke="rgb(255,153,51)">
      <rect x="52.742" y="257" clip-path="url(#clipPath2)" width="30" rx="4" ry="4" height="10" stroke="none"/>
    </g>
    <g text-rendering="geometricPrecision" stroke-miterlimit="1.45" shape-rendering="geometricPrecision" transform="matrix(1,0,0,1,88,-144)" stroke-linecap="butt">
      <rect x="52.742" y="257" clip-path="url(#clipPath2)" fill="none" width="30" rx="4" ry="4" height="10"/>
    </g>
    <g fill="rgb(255,153,51)" text-rendering="geometricPrecision" shape-rendering="geometricPrecision" transform="matrix(1,0,0,1,88,-144)" stroke="rgb(255,153,51)">
      <rect x="133.162" y="282" clip-path="url(#clipPath2)" width="30" rx="4" ry="4" height="10" stroke="none"/>
    </g>
    <g text-rendering="geometricPrecision" stroke-miterlimit="1.45" shape-rendering="geometricPrecision" transform="matrix(1,0,0,1,88,-144)" stroke-linecap="butt">
      <rect x="133.162" y="282" clip-path="url(#clipPath2)" fill="none" width="30" rx="4" ry="4" height="10"/>
    </g>
    <g fill="rgb(255,153,51)" text-rendering="geometricPrecision" shape-rendering="geometricPrecision" transform="matrix(1,0,0,1,88,-144)" stroke="rgb(255,153,51)">
      <rect x="152.742" y="307" clip-path="url(#clipPath2)" width="30" rx="4" ry="4" height="10" stroke="none"/>
    </g>
    <g text-rendering="geometricPrecision" stroke-miterlimit="1.45" shape-rendering="geometricPrecision" transform="matrix(1,0,0,1,88,-144)" stroke-linecap="butt">
      <rect x="152.742" y="307" clip-path="url(#clipPath2)" fill="none" width="30" rx="4" ry="4" height="10"/>
    </g>
    <g fill="rgb(255,153,51)" text-rendering="geometricPrecision" shape-rendering="geometricPrecision" transform="matrix(1,0,0,1,88,-144)" stroke="rgb(255,153,51)">
      <rect x="170.326" y="282" clip-path="url(#clipPath2)" width="30" rx="4" ry="4" height="10" stroke="none"/>
    </g>
    <g text-rendering="geometricPrecision" stroke-miterlimit="1.45" shape-rendering="geometricPrecision" transform="matrix(1,0,0,1,88,-144)" stroke-linecap="butt">
      <rect x="170.326" y="282" clip-path="url(#clipPath2)" fill="none" width="30" rx="4" ry="4" height="10"/>
    </g>
    <g fill="rgb(255,153,51)" text-rendering="geometricPrecision" shape-rendering="geometricPrecision" transform="matrix(1,0,0,1,88,-144)" stroke="rgb(255,153,51)">
      <rect x="152.742" y="257" clip-path="url(#clipPath2)" width="30" rx="4" ry="4" height="10" stroke="none"/>
    </g>
    <g text-rendering="geometricPrecision" stroke-miterlimit="1.45" shape-rendering="geometricPrecision" transform="matrix(1,0,0,1,88,-144)" stroke-linecap="butt">
      <rect x="152.742" y="257" clip-path="url(#clipPath2)" fill="none" width="30" rx="4" ry="4" height="10"/>
    </g>
    <g fill="rgb(255,153,51)" text-rendering="geometricPrecision" shape-rendering="geometricPrecision" transform="matrix(1,0,0,1,88,-144)" stroke="rgb(255,153,51)">
      <rect x="234.16" y="282" clip-path="url(#clipPath2)" width="30" rx="4" ry="4" height="10" stroke="none"/>
    </g>
    <g text-rendering="geometricPrecision" stroke-miterlimit="1.45" shape-rendering="geometricPrecision" transform="matrix(1,0,0,1,88,-144)" stroke-linecap="butt">
      <rect x="234.16" y="282" clip-path="url(#clipPath2)" fill="none" width="30" rx="4" ry="4" height="10"/>
    </g>
    <g fill="rgb(255,153,51)" text-rendering="geometricPrecision" shape-rendering="geometricPrecision" transform="matrix(1,0,0,1,88,-144)" stroke="rgb(255,153,51)">
      <rect x="253.74" y="307" clip-path="url(#clipPath2)" width="30" rx="4" ry="4" height="10" stroke="none"/>
    </g>
    <g text-rendering="geometricPrecision" stroke-miterlimit="1.45" shape-rendering="geometricPrecision" transform="matrix(1,0,0,1,88,-144)" stroke-linecap="butt">
      <rect x="253.74" y="307" clip-path="url(#clipPath2)" fill="none" width="30" rx="4" ry="4" height="10"/>
    </g>
    <g fill="rgb(255,153,51)" text-rendering="geometricPrecision" shape-rendering="geometricPrecision" transform="matrix(1,0,0,1,88,-144)" stroke="rgb(255,153,51)">
      <rect x="271.324" y="282" clip-path="url(#clipPath2)" width="30" rx="4" ry="4" height="10" stroke="none"/>
    </g>
    <g text-rendering="geometricPrecision" stroke-miterlimit="1.45" shape-rendering="geometricPrecision" transform="matrix(1,0,0,1,88,-144)" stroke-linecap="butt">
      <rect x="271.324" y="282" clip-path="url(#clipPath2)" fill="none" width="30" rx="4" ry="4" height="10"/>
    </g>
    <g fill="rgb(255,153,51)" text-rendering="geometricPrecision" shape-rendering="geometricPrecision" transform="matrix(1,0,0,1,88,-144)" stroke="rgb(255,153,51)">
      <rect x="253.74" y="257" clip-path="url(#clipPath2)" width="30" rx="4" ry="4" height="10" stroke="none"/>
    </g>
    <g text-rendering="geometricPrecision" stroke-miterlimit="1.45" shape-rendering="geometricPrecision" transform="matrix(1,0,0,1,88,-144)" stroke-linecap="butt">
      <rect x="253.74" y="257" clip-path="url(#clipPath2)" fill="none" width="30" rx="4" ry="4" height="10"/>
    </g>
    <g fill="rgb(153,204,255)" text-rendering="geometricPrecision" shape-rendering="geometricPrecision" transform="matrix(1,0,0,1,88,-144)" stroke="rgb(153,204,255)">
      <rect x="-72.258" width="380" height="30" y="159.5" clip-path="url(#clipPath2)" stroke="none"/>
    </g>
    <g text-rendering="geometricPrecision" stroke-miterlimit="1.45" shape-rendering="geometricPrecision" font-family="sans-serif" transform="matrix(1,0,0,1,88,-144)" stroke-linecap="butt">
      <text x="18.5164" xml:space="preserve" y="179.2139" clip-path="url(#clipPath2)" stroke="none">Parameter Server: W    = W - Σ λ·ΔW</text>
      <rect fill="none" x="-72.258" width="380" height="30" y="159.5" clip-path="url(#clipPath2)"/>
      <text x="-59.6887" xml:space="preserve" font-size="8px" y="238.1426" clip-path="url(#clipPath2)" stroke="none">i</text>
      <text x="13.9754" xml:space="preserve" font-size="8px" y="217.1426" clip-path="url(#clipPath2)" stroke="none">i,1</text>
      <text x="40.3113" xml:space="preserve" font-size="8px" y="238.1426" clip-path="url(#clipPath2)" stroke="none">i</text>
      <text x="140.3113" xml:space="preserve" font-size="8px" y="238.1426" clip-path="url(#clipPath2)" stroke="none">i</text>
      <text x="240.3113" xml:space="preserve" font-size="8px" y="238.1426" clip-path="url(#clipPath2)" stroke="none">i</text>
      <text x="114.9754" xml:space="preserve" font-size="8px" y="217.1426" clip-path="url(#clipPath2)" stroke="none">i,2</text>
      <text x="214.9754" xml:space="preserve" font-size="8px" y="217.1426" clip-path="url(#clipPath2)" stroke="none">i,3</text>
      <text x="314.9754" xml:space="preserve" font-size="8px" y="217.1426" clip-path="url(#clipPath2)" stroke="none">i,4</text>
      <text x="129.7508" xml:space="preserve" font-size="8px" y="183.1426" clip-path="url(#clipPath2)" stroke="none">i+1</text>
      <text x="177.1131" xml:space="preserve" font-size="6px" y="184.3569" clip-path="url(#clipPath2)" stroke="none">j=1</text>
      <text x="179.5315" xml:space="preserve" font-size="6px" y="169.3569" clip-path="url(#clipPath2)" stroke="none">4</text>
      <text x="217.3113" xml:space="preserve" font-size="8px" y="183.1426" clip-path="url(#clipPath2)" stroke="none">i,j</text>
      <text x="165.3113" xml:space="preserve" font-size="8px" y="183.1426" clip-path="url(#clipPath2)" stroke="none">i</text>
      <path fill="none" d="M-35.1798 306.4951 L-44.428 294.687" clip-path="url(#clipPath2)"/>
      <path d="M-46.8944 291.5378 L-46.6853 301.5356 L-43.8114 295.4742 L-37.2379 294.1365 Z" clip-path="url(#clipPath2)" stroke="none"/>
      <path fill="none" d="M-27.7398 306.4951 L-19.5206 294.8096" clip-path="url(#clipPath2)"/>
      <path d="M-17.2194 291.5378 L-26.7295 294.6295 L-20.0959 295.6275 L-16.9142 301.5332 Z" clip-path="url(#clipPath2)" stroke="none"/>
      <path fill="none" d="M-46.9202 281.4951 L-37.672 269.687" clip-path="url(#clipPath2)"/>
      <path d="M-35.2056 266.5378 L-44.8621 269.1365 L-38.2886 270.4742 L-35.4147 276.5356 Z" clip-path="url(#clipPath2)" stroke="none"/>
      <path fill="none" d="M-17.1962 281.4951 L-25.4154 269.8096" clip-path="url(#clipPath2)"/>
      <path d="M-27.7166 266.5378 L-28.0218 276.5332 L-24.8401 270.6275 L-18.2065 269.6295 Z" clip-path="url(#clipPath2)" stroke="none"/>
      <path fill="none" d="M63.8222 306.9951 L54.574 295.187" clip-path="url(#clipPath2)"/>
      <path d="M52.1076 292.0378 L52.3167 302.0356 L55.1906 295.9742 L61.7641 294.6365 Z" clip-path="url(#clipPath2)" stroke="none"/>
      <path fill="none" d="M71.2622 306.9951 L79.4814 295.3096" clip-path="url(#clipPath2)"/>
      <path d="M81.7826 292.0378 L72.2725 295.1295 L78.9061 296.1275 L82.0878 302.0332 Z" clip-path="url(#clipPath2)" stroke="none"/>
      <path fill="none" d="M52.0818 281.9951 L61.33 270.187" clip-path="url(#clipPath2)"/>
      <path d="M63.7964 267.0378 L54.1399 269.6365 L60.7134 270.9742 L63.5873 277.0356 Z" clip-path="url(#clipPath2)" stroke="none"/>
      <path fill="none" d="M81.8058 281.9951 L73.5866 270.3096" clip-path="url(#clipPath2)"/>
      <path d="M71.2854 267.0378 L70.9802 277.0332 L74.1619 271.1275 L80.7955 270.1295 Z" clip-path="url(#clipPath2)" stroke="none"/>
      <path fill="none" d="M163.8222 306.9951 L154.574 295.187" clip-path="url(#clipPath2)"/>
      <path d="M152.1076 292.0378 L152.3167 302.0356 L155.1906 295.9742 L161.7641 294.6365 Z" clip-path="url(#clipPath2)" stroke="none"/>
      <path fill="none" d="M171.2622 306.9951 L179.4814 295.3096" clip-path="url(#clipPath2)"/>
      <path d="M181.7826 292.0378 L172.2725 295.1295 L178.9061 296.1275 L182.0878 302.0332 Z" clip-path="url(#clipPath2)" stroke="none"/>
      <path fill="none" d="M152.0818 281.9951 L161.33 270.187" clip-path="url(#clipPath2)"/>
      <path d="M163.7964 267.0378 L154.1399 269.6365 L160.7134 270.9742 L163.5873 277.0356 Z" clip-path="url(#clipPath2)" stroke="none"/>
      <path fill="none" d="M181.8058 281.9951 L173.5866 270.3096" clip-path="url(#clipPath2)"/>
      <path d="M171.2854 267.0378 L170.9802 277.0332 L174.1619 271.1275 L180.7955 270.1295 Z" clip-path="url(#clipPath2)" stroke="none"/>
      <path fill="none" d="M264.8202 306.9951 L255.572 295.187" clip-path="url(#clipPath2)"/>
      <path d="M253.1056 292.0378 L253.3147 302.0356 L256.1886 295.9742 L262.7621 294.6365 Z" clip-path="url(#clipPath2)" stroke="none"/>
      <path fill="none" d="M272.2602 306.9951 L280.4794 295.3096" clip-path="url(#clipPath2)"/>
      <path d="M282.7806 292.0378 L273.2705 295.1295 L279.9041 296.1275 L283.0858 302.0332 Z" clip-path="url(#clipPath2)" stroke="none"/>
      <path fill="none" d="M253.0798 281.9951 L262.328 270.187" clip-path="url(#clipPath2)"/>
      <path d="M264.7944 267.0378 L255.1379 269.6364 L261.7114 270.9742 L264.5852 277.0356 Z" clip-path="url(#clipPath2)" stroke="none"/>
      <path fill="none" d="M282.8038 281.9951 L274.5846 270.3096" clip-path="url(#clipPath2)"/>
      <path d="M272.2834 267.0378 L271.9782 277.0332 L275.1599 271.1275 L281.7935 270.1295 Z" clip-path="url(#clipPath2)" stroke="none"/>
      <path fill="none" d="M-52.258 189.5222 L-52.258 241.5264" clip-path="url(#clipPath2)"/>
      <path d="M-52.258 249.5264 L-47.258 237.5264 L-52.258 240.5264 L-57.258 237.5264 Z" clip-path="url(#clipPath2)" stroke="none"/>
      <text x="-70.5842" xml:space="preserve" y="234.7383" clip-path="url(#clipPath2)" stroke="none">W</text>
      <path fill="none" d="M-12.258 249.5191 L-12.258 197.5149" clip-path="url(#clipPath2)"/>
      <path d="M-12.258 189.5149 L-17.258 201.5149 L-12.258 198.5149 L-7.258 201.5149 Z" clip-path="url(#clipPath2)" stroke="none"/>
      <text x="-5.258" xml:space="preserve" y="213.6895" clip-path="url(#clipPath2)" stroke="none">ΔW</text>
      <path fill="none" d="M48.162 189.4722 L48.162 241.5164" clip-path="url(#clipPath2)"/>
      <path d="M48.162 249.5164 L53.162 237.5164 L48.162 240.5164 L43.162 237.5164 Z" clip-path="url(#clipPath2)" stroke="none"/>
      <text x="29.8358" xml:space="preserve" y="234.7383" clip-path="url(#clipPath2)" stroke="none">W</text>
      <path fill="none" d="M88.162 249.5146 L88.162 197.481" clip-path="url(#clipPath2)"/>
      <path d="M88.162 189.481 L83.162 201.481 L88.162 198.481 L93.162 201.481 Z" clip-path="url(#clipPath2)" stroke="none"/>
      <text x="95.162" xml:space="preserve" y="213.6895" clip-path="url(#clipPath2)" stroke="none">ΔW</text>
      <path fill="none" d="M148.162 189.4802 L148.162 241.518" clip-path="url(#clipPath2)"/>
      <path d="M148.162 249.518 L153.162 237.518 L148.162 240.518 L143.162 237.518 Z" clip-path="url(#clipPath2)" stroke="none"/>
      <text x="129.8358" xml:space="preserve" y="234.7383" clip-path="url(#clipPath2)" stroke="none">W</text>
      <path fill="none" d="M188.162 249.5146 L188.162 197.481" clip-path="url(#clipPath2)"/>
      <path d="M188.162 189.481 L183.162 201.481 L188.162 198.481 L193.162 201.481 Z" clip-path="url(#clipPath2)" stroke="none"/>
      <text x="195.162" xml:space="preserve" y="213.6895" clip-path="url(#clipPath2)" stroke="none">ΔW</text>
      <path fill="none" d="M247.742 189.4924 L247.742 241.5205" clip-path="url(#clipPath2)"/>
      <path d="M247.742 249.5205 L252.742 237.5205 L247.742 240.5205 L242.742 237.5205 Z" clip-path="url(#clipPath2)" stroke="none"/>
      <text x="229.4158" xml:space="preserve" y="234.7383" clip-path="url(#clipPath2)" stroke="none">W</text>
      <path fill="none" d="M287.742 249.5268 L287.742 197.524" clip-path="url(#clipPath2)"/>
      <path d="M287.742 189.524 L282.742 201.524 L287.742 198.524 L292.742 201.524 Z" clip-path="url(#clipPath2)" stroke="none"/>
      <text x="294.742" xml:space="preserve" y="213.6895" clip-path="url(#clipPath2)" stroke="none">ΔW</text>
    </g>
  </g>
</svg>
